<?xml version="1.0" standalone="no"?>
<!DOCTYPE svg PUBLIC "-//W3C//DTD SVG 20010904//EN"
 "http://www.w3.org/TR/2001/REC-SVG-20010904/DTD/svg10.dtd">
<svg version="1.0" xmlns="http://www.w3.org/2000/svg"
 width="900.000000pt" height="843.000000pt" viewBox="0 0 900.000000 843.000000"
 preserveAspectRatio="xMidYMid meet">
<metadata>
Created by potrace 1.10, written by Peter Selinger 2001-2011
</metadata>
<g transform="translate(0.000000,843.000000) scale(0.100000,-0.100000)"
fill="#000000" stroke="none">
<path d="M4843 7548 c-7 -9 -9 -70 -4 -188 7 -197 -3 -176 101 -215 25 -10 64
-26 88 -37 69 -32 70 -30 74 149 2 87 0 167 -3 179 -5 14 -33 32 -86 54 -43
18 -85 39 -93 46 -25 20 -65 27 -77 12z m148 -208 c4 -44 -1 -60 -16 -60 -11
0 -15 11 -15 43 0 63 26 77 31 17z"/>
<path d="M3791 7185 c-23 -14 -48 -25 -55 -25 -6 0 -23 -10 -37 -23 l-27 -22
5 -142 6 -143 31 0 c17 0 40 7 50 15 11 8 30 15 42 15 12 0 33 9 48 21 l27 21
-6 131 c-9 198 -8 195 -84 152z"/>
<path d="M5942 7057 c-8 -10 -17 -189 -13 -268 1 -10 27 -26 72 -44 68 -26 71
-27 84 -9 9 12 15 45 15 89 0 39 3 93 6 122 l7 52 -75 36 c-85 40 -82 39 -96
22z"/>
<path d="M4570 6941 c-25 -10 -72 -27 -105 -38 l-60 -19 -3 -160 c-3 -200 -1
-204 125 -148 17 8 47 14 66 14 19 0 39 6 44 13 6 6 14 77 17 156 4 79 10 149
12 156 6 14 -22 45 -39 45 -7 -1 -32 -9 -57 -19z"/>
<path d="M4854 6952 c-8 -5 -11 -59 -9 -176 3 -184 4 -186 63 -186 18 0 45 -6
60 -14 15 -8 49 -17 75 -21 l47 -7 -2 167 -3 167 -80 28 c-44 15 -93 32 -108
39 -33 13 -29 13 -43 3z"/>
<path d="M2981 6822 l-53 -26 5 -112 c2 -61 8 -117 12 -124 10 -17 74 -7 110
16 l27 18 -7 105 c-10 160 -12 163 -94 123z"/>
<path d="M6435 6828 c-2 -7 -6 -42 -9 -78 -3 -36 -9 -86 -12 -111 l-6 -46 44
-22 c50 -24 81 -27 95 -8 6 6 13 58 16 114 7 114 3 123 -60 149 -40 17 -62 18
-68 2z"/>
<path d="M5265 6810 c-13 -14 -15 -41 -13 -160 l3 -143 60 -19 c33 -11 73 -27
90 -35 28 -14 31 -13 48 8 10 13 16 32 13 43 -2 12 -1 68 4 126 9 114 3 140
-33 140 -12 0 -52 13 -89 29 -63 27 -68 28 -83 11z"/>
<path d="M3820 6695 c-14 -8 -37 -17 -51 -19 -15 -3 -36 -14 -47 -23 -19 -17
-20 -25 -14 -148 l7 -130 36 1 c52 1 130 26 138 44 4 8 5 76 2 150 -6 126 -7
135 -26 137 -11 1 -31 -5 -45 -12z"/>
<path d="M5618 6699 c-16 -9 -18 -27 -18 -149 l0 -139 58 -16 c31 -10 71 -19
88 -22 l31 -5 6 138 c4 76 4 141 0 145 -5 3 -33 16 -63 27 -30 10 -62 22 -70
25 -8 4 -23 2 -32 -4z"/>
<path d="M3486 6585 c-64 -23 -71 -35 -58 -101 7 -32 12 -86 12 -121 0 -74 12
-85 66 -59 19 9 43 16 54 16 32 0 38 29 31 155 l-6 120 -30 2 c-16 2 -48 -4
-69 -12z"/>
<path d="M5911 6582 c-6 -12 -11 -71 -11 -135 l0 -114 67 -22 c62 -21 68 -21
79 -6 7 9 13 42 13 73 0 31 5 73 11 92 18 62 13 78 -29 100 -22 10 -57 22 -79
26 -34 5 -42 3 -51 -14z"/>
<path d="M3270 6515 c-14 -8 -32 -14 -41 -15 -8 0 -26 -11 -38 -24 -22 -23
-22 -24 -7 -90 9 -37 16 -87 16 -112 0 -40 2 -44 24 -44 13 0 46 9 72 20 l47
20 -8 63 c-4 34 -10 91 -14 126 -3 36 -10 66 -16 67 -5 2 -21 -3 -35 -11z"/>
<path d="M6176 6509 c-2 -8 -7 -64 -10 -125 -7 -124 -8 -122 61 -144 61 -19
69 -12 77 67 3 37 9 87 12 111 7 50 -10 76 -54 85 -15 3 -39 9 -54 13 -19 4
-29 2 -32 -7z"/>
<path d="M4607 6394 c-3 -3 -45 -15 -94 -25 -48 -11 -92 -25 -98 -30 -13 -13
-6 -280 8 -297 7 -9 21 -11 41 -7 17 4 61 10 99 15 37 4 74 13 82 20 20 16 22
299 3 318 -13 13 -31 16 -41 6z"/>
<path d="M4849 6394 c-1 -5 -3 -78 -4 -162 -1 -101 2 -155 9 -161 6 -5 34 -11
61 -15 28 -4 72 -12 98 -17 35 -8 52 -8 60 0 12 12 20 298 8 306 -5 2 -48 13
-97 25 -49 11 -99 23 -111 26 -13 3 -24 2 -24 -2z"/>
<path d="M4165 6298 c-22 -5 -58 -15 -80 -21 l-40 -12 -3 -125 c-3 -164 -4
-164 107 -151 46 5 89 15 97 23 10 10 12 42 6 153 -8 157 -5 153 -87 133z"/>
<path d="M5247 6304 c-4 -4 -7 -71 -7 -149 l0 -143 28 -10 c36 -14 169 -25
175 -15 3 5 7 67 8 138 3 148 3 148 -92 165 -30 6 -65 13 -79 16 -14 3 -29 2
-33 -2z"/>
<path d="M5602 6231 c-9 -6 -24 -140 -26 -226 -1 -38 1 -40 39 -53 22 -7 62
-14 90 -15 l50 -2 7 124 c5 80 4 129 -2 136 -6 7 -25 16 -43 20 -81 18 -106
22 -115 16z"/>
<path d="M3775 6211 c-57 -20 -53 -4 -40 -178 9 -118 2 -113 117 -87 l71 16
-8 127 c-4 69 -9 129 -11 133 -9 13 -77 7 -129 -11z"/>
<path d="M2365 6190 c-16 -11 -37 -20 -46 -20 -38 0 -49 -32 -49 -137 0 -117
8 -127 72 -93 21 11 47 20 58 20 38 0 51 39 48 146 -3 97 -3 99 -28 102 -14 1
-38 -7 -55 -18z"/>
<path d="M6615 6189 c-90 -47 -84 -37 -81 -151 2 -97 4 -103 24 -106 12 -2 32
4 44 12 12 9 33 16 45 16 35 0 50 37 57 136 7 120 -8 136 -89 93z"/>
<path d="M3277 6113 c-43 -5 -74 -41 -62 -70 5 -10 11 -54 14 -98 l6 -80 51
-3 c37 -2 56 2 72 15 21 17 21 22 11 123 -9 98 -18 122 -44 118 -5 -1 -27 -3
-48 -5z"/>
<path d="M6146 6112 c-3 -5 -8 -59 -12 -120 -7 -106 -6 -110 15 -121 12 -7 41
-11 64 -9 l42 3 6 60 c3 33 10 81 14 106 8 53 -9 79 -53 79 -15 0 -37 3 -48 6
-12 3 -24 1 -28 -4z"/>
<path d="M3052 6063 c-48 -17 -61 -44 -43 -94 6 -18 11 -56 11 -86 0 -39 4
-55 15 -60 16 -6 103 15 109 26 2 3 1 50 -3 105 -5 84 -9 101 -26 111 -16 10
-28 10 -63 -2z"/>
<path d="M6372 6058 c-5 -7 -13 -59 -17 -114 l-7 -102 53 -11 c29 -6 56 -8 60
-4 4 5 10 54 14 110 l7 102 -37 15 c-45 19 -59 20 -73 4z"/>
<path d="M7306 5974 c-8 -22 -7 -167 2 -179 12 -18 90 -48 106 -42 13 5 16 25
16 101 l0 94 -43 21 c-52 25 -73 26 -81 5z"/>
<path d="M1668 5882 c-36 -22 -36 -23 -30 -114 l5 -78 29 0 c17 0 43 9 59 21
27 19 29 25 29 89 0 38 -3 75 -6 84 -8 20 -51 19 -86 -2z"/>
<path d="M4839 5864 c-6 -64 -1 -286 7 -294 6 -6 53 -15 104 -21 129 -13 127
-15 125 149 -1 70 -6 135 -11 144 -7 13 -33 18 -116 24 -62 4 -108 3 -109 -2z"/>
<path d="M2386 5825 c-11 -8 -30 -15 -42 -15 -12 0 -32 -9 -46 -19 -22 -18
-24 -25 -23 -107 1 -71 5 -89 19 -100 15 -10 24 -10 50 1 17 7 46 19 64 25 17
7 32 15 32 19 9 150 7 192 -10 201 -23 12 -21 12 -44 -5z"/>
<path d="M2562 5828 c-7 -7 -12 -44 -12 -98 0 -93 15 -130 51 -130 11 0 33 -7
50 -15 22 -12 34 -13 49 -5 18 9 20 21 20 99 0 79 -2 90 -23 109 -13 12 -32
22 -43 22 -11 0 -29 7 -40 15 -23 18 -36 19 -52 3z"/>
<path d="M4218 5834 c-4 -3 -39 -11 -80 -18 l-73 -12 4 -130 c2 -71 5 -131 6
-132 6 -7 183 -5 193 2 17 10 3 257 -16 279 -16 18 -25 21 -34 11z"/>
<path d="M6820 5830 c-20 -12 -16 -188 5 -209 7 -7 36 -21 64 -31 75 -25 85
-15 87 91 2 73 0 87 -19 107 -11 12 -32 22 -46 22 -14 0 -35 7 -45 15 -23 17
-26 18 -46 5z"/>
<path d="M6607 5810 c-75 -29 -77 -32 -77 -125 0 -97 10 -114 61 -96 18 6 42
11 55 11 39 0 54 35 54 125 0 78 -9 106 -34 104 -6 0 -33 -9 -59 -19z"/>
<path d="M3805 5781 l-50 -6 2 -50 c0 -27 2 -76 2 -109 2 -89 9 -96 90 -96 93
0 95 4 87 133 -4 56 -9 110 -12 120 -6 18 -23 19 -119 8z"/>
<path d="M5567 5693 c-3 -54 -9 -110 -12 -125 -9 -33 8 -43 91 -53 56 -6 62
-5 76 17 16 25 32 215 20 235 -4 6 -44 14 -88 18 l-82 7 -5 -99z"/>
<path d="M1357 5742 c-34 -37 -12 -172 28 -172 8 0 26 10 40 23 26 22 27 25
18 92 -8 69 -9 70 -39 73 -20 2 -36 -3 -47 -16z"/>
<path d="M3520 5751 c-39 -7 -37 9 -24 -159 l7 -83 71 3 71 3 0 105 c0 58 -4
113 -8 123 -8 18 -46 21 -117 8z"/>
<path d="M5863 5749 c-6 -8 -12 -63 -14 -124 l-4 -110 72 -3 c84 -3 78 -11 88
129 5 69 3 99 -5 104 -6 4 -37 9 -68 12 -42 4 -61 2 -69 -8z"/>
<path d="M7814 5749 c-3 -6 -9 -39 -11 -73 -5 -59 -4 -64 22 -84 39 -31 51
-28 69 18 32 81 12 150 -44 150 -16 0 -32 -5 -36 -11z"/>
<path d="M2106 5735 c-11 -8 -28 -15 -38 -15 -27 0 -35 -29 -30 -107 5 -89 16
-101 75 -83 23 6 48 17 55 22 16 14 17 169 0 186 -16 16 -39 15 -62 -3z"/>
<path d="M3268 5718 c-14 -11 -15 -29 -11 -111 7 -114 14 -122 90 -109 47 7
48 9 47 42 -1 63 -12 169 -19 180 -9 14 -88 13 -107 -2z"/>
<path d="M6118 5724 c-5 -4 -8 -32 -8 -62 0 -30 -5 -72 -11 -93 -17 -56 -2
-71 70 -67 l56 3 6 70 c4 39 10 84 14 101 4 17 3 34 -1 37 -16 9 -119 19 -126
11z"/>
<path d="M3085 5705 l-40 -11 3 -89 c5 -127 4 -125 67 -125 33 0 55 5 58 13 5
13 -1 157 -9 193 -5 28 -29 34 -79 19z"/>
<path d="M6333 5693 c-4 -10 -7 -60 -7 -113 l-1 -95 55 0 55 0 7 95 c7 88 6
96 -14 113 -27 23 -86 23 -95 0z"/>
<path d="M1880 5663 c-30 -11 -40 -37 -40 -102 0 -84 8 -96 55 -88 58 9 65 21
65 101 0 90 -19 111 -80 89z"/>
<path d="M7291 5652 c-17 -31 -14 -147 4 -162 23 -19 95 -25 106 -9 13 21 11
143 -3 162 -7 9 -32 19 -55 23 -35 5 -43 3 -52 -14z"/>
<path d="M1702 5603 c-30 -6 -39 -34 -34 -115 l4 -68 32 0 c48 0 66 25 66 94
0 31 -5 66 -10 77 -11 19 -15 20 -58 12z"/>
<path d="M7497 5603 c-3 -5 -8 -38 -11 -75 -10 -87 2 -110 52 -106 l37 3 3 83
c3 81 2 82 -23 92 -31 12 -52 13 -58 3z"/>
<path d="M1532 5544 c-18 -13 -22 -25 -22 -74 0 -32 3 -65 6 -74 7 -18 46 -21
75 -6 39 21 18 170 -24 170 -7 0 -23 -7 -35 -16z"/>
<path d="M7657 5542 c-12 -13 -17 -37 -17 -80 0 -66 12 -82 64 -82 26 0 28 5
41 95 6 44 1 56 -32 74 -29 15 -37 14 -56 -7z"/>
<path d="M2338 5462 c-52 -17 -58 -27 -58 -113 0 -74 22 -105 63 -90 16 6 41
11 57 11 16 0 31 4 35 10 7 12 14 170 8 187 -6 16 -45 14 -105 -5z"/>
<path d="M2563 5469 c-14 -14 -18 -166 -5 -185 4 -5 34 -16 66 -23 78 -17 86
-7 86 101 l0 79 -37 15 c-54 23 -96 28 -110 13z"/>
<path d="M6593 5461 c-23 -9 -45 -20 -49 -23 -4 -4 -8 -42 -9 -84 -2 -79 12
-111 42 -100 8 4 33 9 56 12 57 9 67 25 67 107 0 109 -18 124 -107 88z"/>
<path d="M6817 5473 c-4 -3 -7 -48 -7 -99 0 -105 1 -107 82 -117 31 -4 49 -2
56 6 13 16 21 136 11 163 -11 31 -122 67 -142 47z"/>
<path d="M1127 5423 c-4 -3 -7 -28 -7 -54 0 -53 18 -79 54 -79 30 0 46 18 46
55 0 50 -66 106 -93 78z"/>
<path d="M2820 5420 c-12 -7 -16 -169 -4 -179 17 -15 96 -33 105 -24 5 5 12
45 15 89 6 69 4 81 -12 95 -20 17 -87 30 -104 19z"/>
<path d="M7082 5421 c-15 -10 -23 -168 -9 -180 22 -17 94 -30 106 -18 15 15
14 174 -1 183 -18 11 -85 22 -96 15z"/>
<path d="M7916 5414 c-18 -17 -22 -109 -6 -119 5 -3 20 -3 34 1 20 5 26 14 32
49 3 24 3 52 -1 64 -8 25 -37 27 -59 5z"/>
<path d="M2083 5410 c-13 -5 -23 -15 -24 -22 -4 -45 4 -165 11 -172 10 -11 95
11 109 28 5 6 7 48 4 94 l-6 82 -36 -1 c-20 0 -46 -4 -58 -9z"/>
<path d="M4434 5373 c-9 -9 -11 -47 -7 -140 3 -70 8 -131 12 -135 11 -12 198
-13 213 -1 16 14 17 258 0 275 -15 15 -203 16 -218 1z"/>
<path d="M3840 5370 l-65 -5 4 -105 c2 -58 7 -112 12 -121 11 -21 138 -34 156
-16 9 9 11 42 5 126 -8 132 -6 129 -112 121z"/>
<path d="M4844 5369 c-12 -20 -8 -259 5 -272 14 -14 190 -11 205 3 7 7 12 203
7 268 -1 16 -207 17 -217 1z"/>
<path d="M5234 5365 c-19 -13 -21 -24 -21 -127 -1 -62 4 -119 9 -125 7 -9 32
-11 87 -6 115 9 111 4 111 138 0 103 -2 115 -19 125 -30 15 -143 13 -167 -5z"/>
<path d="M7292 5371 c-9 -5 -12 -30 -10 -86 l3 -78 37 -13 c30 -10 39 -10 57
2 18 13 21 25 21 85 0 63 -2 70 -22 78 -44 16 -73 20 -86 12z"/>
<path d="M1868 5363 c-15 -4 -18 -16 -18 -79 0 -67 2 -75 24 -89 22 -14 28
-15 60 -1 l37 15 -3 78 -3 78 -40 2 c-22 0 -48 -1 -57 -4z"/>
<path d="M3285 5358 c-2 -7 -1 -56 3 -108 l7 -94 32 -9 c17 -5 48 -6 67 -3
l36 7 -6 97 c-4 53 -11 103 -17 110 -5 7 -32 12 -64 12 -34 0 -55 -5 -58 -12z"/>
<path d="M3521 5361 c-12 -8 -13 -20 -3 -74 7 -35 12 -83 12 -105 0 -44 -5
-41 74 -57 14 -3 36 -1 51 5 l26 10 -7 102 c-4 57 -11 109 -17 116 -11 14
-115 16 -136 3z"/>
<path d="M5552 5362 c-9 -6 -12 -39 -10 -128 l3 -119 75 3 c41 2 78 7 82 10 4
4 8 59 10 122 l3 115 -75 3 c-41 1 -81 -2 -88 -6z"/>
<path d="M5842 5358 c-5 -7 -13 -59 -17 -115 -8 -120 -1 -129 80 -114 57 11
65 21 65 86 0 28 5 68 11 89 10 35 9 42 -7 53 -23 17 -118 17 -132 1z"/>
<path d="M6086 5358 c-3 -7 -7 -57 -10 -110 -7 -105 -4 -111 54 -104 14 2 35
4 48 5 19 1 22 7 22 39 0 20 4 64 10 96 7 42 6 63 -1 73 -15 17 -118 18 -123
1z"/>
<path d="M3015 5297 c-11 -56 -3 -92 20 -92 16 0 21 8 23 39 4 51 -5 86 -23
86 -8 0 -17 -14 -20 -33z"/>
<path d="M724 5275 c-14 -33 -14 -39 1 -61 17 -27 33 -30 59 -11 13 10 17 24
14 57 -3 41 -6 45 -31 48 -23 3 -30 -2 -43 -33z"/>
<path d="M1560 5297 c-23 -12 -25 -18 -22 -72 3 -66 14 -85 48 -85 39 0 57 38
44 96 -11 46 -25 74 -39 74 -3 0 -17 -6 -31 -13z"/>
<path d="M8297 5303 c-9 -9 -9 -75 1 -89 12 -19 54 -28 63 -13 12 19 11 66 -1
90 -10 18 -50 26 -63 12z"/>
<path d="M7625 5270 c-8 -16 -15 -43 -15 -60 0 -51 60 -91 88 -57 16 20 24
104 12 127 -17 32 -66 27 -85 -10z"/>
<path d="M1419 5273 c-22 -5 -27 -27 -21 -96 l4 -57 34 0 c43 0 56 23 48 87
-6 42 -26 75 -43 72 -3 -1 -13 -3 -22 -6z"/>
<path d="M7785 5266 c-23 -16 -33 -109 -15 -131 18 -22 57 -19 70 5 6 11 10
44 8 72 -2 41 -7 52 -25 59 -13 5 -28 3 -38 -5z"/>
<path d="M982 5208 c-15 -15 -16 -72 -2 -99 25 -46 83 2 78 66 -3 36 -6 40
-33 43 -17 2 -36 -3 -43 -10z"/>
<path d="M1125 5200 c-10 -31 4 -78 28 -95 20 -14 23 -14 40 6 21 26 22 58 1
87 -19 28 -60 29 -69 2z"/>
<path d="M7912 5204 c-16 -11 -22 -25 -22 -55 0 -46 18 -59 56 -39 39 22 32
110 -10 110 -1 0 -12 -7 -24 -16z"/>
<path d="M8034 5206 c-12 -31 1 -79 26 -98 40 -29 60 -15 60 43 0 38 -4 51
-19 59 -28 14 -61 12 -67 -4z"/>
<path d="M467 5183 c-9 -8 -9 -56 -1 -77 3 -9 17 -16 30 -16 30 0 49 37 40 74
-5 20 -13 26 -35 26 -15 0 -31 -3 -34 -7z"/>
<path d="M8567 5184 c-9 -9 -9 -57 -1 -78 8 -20 38 -21 53 -2 7 8 11 30 9 48
-2 27 -8 34 -28 36 -14 2 -29 0 -33 -4z"/>
<path d="M1264 5154 c-10 -41 7 -79 36 -79 35 0 50 44 26 79 -22 34 -54 34
-62 0z"/>
<path d="M2335 5143 c-11 -3 -26 -10 -32 -15 -17 -14 -18 -159 -1 -176 20 -20
101 -15 127 9 20 18 21 29 19 102 l-3 82 -45 2 c-25 0 -54 -1 -65 -4z"/>
<path d="M6587 5143 c-39 -6 -50 -34 -42 -106 11 -102 9 -100 70 -95 77 7 85
16 85 107 0 47 -5 82 -12 89 -12 12 -45 13 -101 5z"/>
<path d="M745 5124 c-17 -18 -12 -73 8 -86 32 -20 68 42 47 81 -13 25 -33 27
-55 5z"/>
<path d="M8290 5110 c-10 -25 -10 -34 4 -55 19 -29 29 -31 50 -9 23 22 20 71
-3 84 -30 15 -38 13 -51 -20z"/>
<path d="M2807 5113 c-9 -15 -19 -132 -13 -151 8 -23 75 -35 114 -21 20 8 22
15 22 82 0 43 -5 78 -12 85 -13 13 -104 17 -111 5z"/>
<path d="M7056 5103 c-8 -28 -10 -139 -2 -152 8 -12 125 -16 127 -3 7 36 5
141 -3 155 -7 13 -21 17 -63 17 -42 0 -55 -4 -59 -17z"/>
<path d="M651 5097 c-21 -21 -10 -87 15 -87 23 0 47 46 35 68 -13 25 -35 34
-50 19z"/>
<path d="M1375 5090 c-8 -13 4 -32 16 -25 12 8 12 35 0 35 -6 0 -13 -4 -16
-10z"/>
<path d="M1886 5087 c-14 -10 -16 -24 -13 -74 3 -33 8 -66 11 -72 11 -17 82
-13 96 4 12 15 9 101 -6 139 -7 19 -63 21 -88 3z"/>
<path d="M3017 5093 c-4 -3 -7 -37 -7 -73 0 -75 17 -103 48 -83 22 14 23 140
1 154 -17 10 -33 11 -42 2z"/>
<path d="M7280 5085 c-19 -23 -26 -121 -10 -140 15 -18 89 -20 94 -2 9 28 14
125 7 136 -13 21 -75 25 -91 6z"/>
<path d="M8394 5086 c-3 -8 -4 -27 -2 -43 4 -40 44 -45 58 -7 15 38 4 64 -26
64 -14 0 -27 -6 -30 -14z"/>
<path d="M1722 5074 c-18 -13 -22 -24 -22 -74 0 -52 3 -62 24 -75 25 -16 53
-11 72 13 6 9 7 36 3 74 -9 77 -31 94 -77 62z"/>
<path d="M7462 5073 c-15 -30 -22 -113 -12 -134 7 -13 21 -19 45 -19 42 0 55
20 55 89 0 40 -4 53 -22 65 -29 21 -55 20 -66 -1z"/>
<path d="M562 5068 c-30 -30 -2 -86 38 -73 27 9 28 60 1 75 -24 13 -24 13 -39
-2z"/>
<path d="M8487 5073 c-11 -10 -8 -71 3 -78 6 -3 19 -3 30 0 25 8 29 70 4 79
-20 8 -29 8 -37 -1z"/>
<path d="M1557 5054 c-10 -11 -9 -89 3 -118 8 -21 16 -26 45 -26 l36 0 -3 73
-3 72 -35 3 c-20 2 -39 0 -43 -4z"/>
<path d="M7617 5053 c-4 -3 -7 -37 -7 -75 l0 -68 29 0 c16 0 33 6 38 13 15 18
23 98 12 119 -10 18 -58 25 -72 11z"/>
<path d="M1425 5018 c-7 -18 -23 -41 -35 -51 -13 -11 -20 -27 -18 -40 2 -18
11 -23 42 -25 22 -2 50 -1 63 2 20 6 23 12 23 57 0 28 -5 59 -10 70 -17 30
-49 24 -65 -13z"/>
<path d="M7761 5036 c-7 -8 -15 -39 -18 -70 -5 -53 -5 -55 21 -62 14 -3 32 -4
40 -1 20 8 32 92 17 123 -12 27 -42 32 -60 10z"/>
<path d="M1002 5029 c-20 -8 -23 -14 -20 -56 3 -41 6 -48 26 -51 34 -5 52 15
52 59 0 44 -21 62 -58 48z"/>
<path d="M3116 5032 c-8 -14 4 -155 15 -168 17 -21 80 -36 95 -23 15 13 8 166
-9 187 -10 13 -93 17 -101 4z"/>
<path d="M6278 5029 c-15 -8 -18 -25 -18 -101 l0 -91 46 6 c25 2 50 9 56 15
11 11 30 160 22 173 -7 12 -85 11 -106 -2z"/>
<path d="M8053 5029 c-45 -17 -20 -109 29 -109 24 0 40 26 36 61 -4 39 -33 61
-65 48z"/>
<path d="M1127 5023 c-4 -3 -7 -21 -7 -39 0 -42 40 -75 65 -54 15 13 20 56 9
84 -6 16 -54 22 -67 9z"/>
<path d="M3318 5019 c-3 -8 -3 -54 1 -104 l6 -90 53 -14 c76 -20 84 -10 75 97
-3 45 -11 89 -17 97 -16 20 -111 31 -118 14z"/>
<path d="M6074 5020 c-19 -7 -22 -19 -27 -102 -7 -115 -2 -123 68 -105 l50 12
8 88 c5 48 6 95 3 103 -6 16 -67 18 -102 4z"/>
<path d="M7900 5010 c-6 -11 -10 -33 -8 -48 3 -24 7 -27 38 -27 35 0 35 0 35
45 0 41 -2 45 -27 48 -19 2 -30 -3 -38 -18z"/>
<path d="M862 4998 c-31 -31 -4 -102 36 -92 21 6 27 23 22 69 -3 33 -36 45
-58 23z"/>
<path d="M8175 4986 c-24 -36 -5 -76 35 -76 28 0 30 2 30 40 0 29 -5 42 -19
50 -27 14 -28 13 -46 -14z"/>
<path d="M1256 4984 c-15 -39 6 -84 40 -84 22 0 37 49 25 77 -12 27 -56 32
-65 7z"/>
<path d="M3534 4986 c-3 -8 -1 -31 5 -53 6 -21 11 -59 11 -85 0 -56 14 -67 95
-75 51 -5 54 -4 60 18 3 13 -1 65 -8 114 l-13 90 -72 3 c-56 2 -74 0 -78 -12z"/>
<path d="M5810 4939 c0 -34 -5 -79 -12 -101 -16 -55 3 -73 66 -64 74 11 84 27
88 131 l3 90 -72 3 -73 3 0 -62z"/>
<path d="M753 4973 c-7 -2 -13 -20 -13 -39 0 -28 4 -35 26 -40 29 -7 44 7 44
42 0 34 -25 51 -57 37z"/>
<path d="M8290 4961 c-15 -28 -12 -46 8 -65 18 -15 20 -15 35 2 20 22 22 53 5
70 -18 18 -36 15 -48 -7z"/>
<path d="M4103 4958 c-6 -8 -8 -54 -5 -126 4 -90 8 -114 21 -121 29 -15 150
-21 158 -8 13 19 11 226 -1 236 -6 4 -31 11 -56 14 -25 4 -59 9 -76 12 -20 5
-34 2 -41 -7z"/>
<path d="M5305 4958 c-27 -5 -59 -11 -71 -14 -19 -3 -21 -12 -27 -116 -4 -82
-3 -116 6 -124 13 -13 159 -5 173 9 4 4 11 56 15 115 6 89 4 110 -9 125 -16
19 -15 18 -87 5z"/>
<path d="M8483 4943 c-16 -6 -17 -69 -2 -78 5 -4 19 1 29 10 17 15 19 15 25
-5 10 -31 59 -24 63 9 5 31 -23 53 -55 45 -12 -4 -23 -2 -23 4 0 12 -21 21
-37 15z"/>
<path d="M565 4929 c-4 -6 -19 -7 -36 -4 -24 6 -29 3 -35 -19 -3 -14 -4 -33 0
-41 6 -17 42 -20 52 -4 3 6 19 9 34 5 35 -7 55 14 46 49 -5 18 -13 25 -31 25
-13 0 -27 -5 -30 -11z"/>
<path d="M4437 4933 c-12 -12 -8 -251 4 -259 15 -9 147 -34 181 -34 16 0 31 7
36 18 10 20 8 224 -2 240 -4 7 -22 12 -39 12 -18 0 -59 7 -90 15 -64 17 -81
18 -90 8z"/>
<path d="M4985 4930 c-11 -5 -41 -9 -66 -9 -71 -1 -76 -10 -82 -136 -3 -64 -1
-118 4 -128 11 -19 52 -22 108 -7 20 5 53 12 74 15 l38 6 -3 132 -3 132 -25 2
c-14 1 -34 -2 -45 -7z"/>
<path d="M1124 4847 c-3 -8 -4 -30 -2 -49 3 -31 6 -33 38 -33 35 0 35 0 35 45
0 43 -1 45 -33 48 -21 2 -34 -2 -38 -11z"/>
<path d="M7896 4844 c-21 -21 -20 -46 3 -71 42 -45 94 1 71 61 -11 30 -49 35
-74 10z"/>
<path d="M864 4836 c-3 -8 -4 -29 -2 -48 3 -29 6 -33 33 -33 24 0 31 5 33 24
7 44 -6 71 -34 71 -13 0 -27 -6 -30 -14z"/>
<path d="M2092 4834 c-21 -14 -22 -22 -18 -81 3 -36 8 -69 13 -73 17 -15 81
-18 99 -5 24 17 24 113 0 150 -19 29 -60 33 -94 9z"/>
<path d="M2332 4843 c-12 -2 -26 -12 -31 -21 -11 -21 -6 -141 6 -153 13 -13
112 -14 126 0 19 19 17 138 -3 156 -18 17 -64 25 -98 18z"/>
<path d="M2567 4832 c-25 -27 -24 -150 1 -168 20 -15 113 -7 124 10 11 17 9
135 -2 157 -15 26 -100 27 -123 1z"/>
<path d="M6610 4843 c-19 -3 -41 -9 -47 -15 -17 -14 -17 -140 -1 -156 12 -12
95 -16 122 -6 13 5 16 22 16 80 0 64 -3 75 -22 88 -12 9 -25 15 -28 14 -3 0
-21 -3 -40 -5z"/>
<path d="M6819 4834 c-15 -19 -14 -153 2 -169 13 -13 109 -8 127 7 20 17 13
155 -8 168 -25 16 -106 12 -121 -6z"/>
<path d="M8170 4829 c-24 -44 10 -96 48 -73 24 15 27 52 6 75 -22 25 -41 24
-54 -2z"/>
<path d="M1588 4829 c-19 -10 -24 -61 -12 -107 8 -27 44 -38 73 -23 18 10 20
18 15 59 -4 29 -14 54 -26 65 -23 20 -27 20 -50 6z"/>
<path d="M1732 4828 c-20 -20 -15 -105 8 -128 23 -23 33 -24 61 -10 28 15 27
102 -1 130 -23 23 -50 26 -68 8z"/>
<path d="M1890 4825 c-17 -20 -9 -133 11 -146 20 -13 73 -11 87 3 20 20 15
122 -6 141 -23 21 -75 22 -92 2z"/>
<path d="M3007 4822 c-20 -22 -23 -122 -5 -140 7 -7 27 -12 45 -12 45 0 68 35
59 92 -12 72 -62 102 -99 60z"/>
<path d="M6398 4828 c-12 -9 -17 -34 -20 -83 l-3 -70 33 -3 c38 -4 51 20 45
83 -9 87 -19 101 -55 73z"/>
<path d="M7266 4827 c-14 -10 -16 -25 -14 -82 l3 -70 42 -3 c50 -4 61 11 70
90 5 42 3 53 -12 64 -24 18 -66 18 -89 1z"/>
<path d="M7452 4824 c-20 -14 -23 -23 -20 -77 3 -58 5 -62 28 -65 41 -5 62 19
68 76 7 76 -24 103 -76 66z"/>
<path d="M7606 4827 c-13 -9 -18 -28 -19 -66 -2 -60 13 -78 56 -67 23 5 26 13
33 63 6 48 4 58 -12 70 -22 16 -35 16 -58 0z"/>
<path d="M667 4809 c-14 -19 -14 -24 0 -45 20 -32 41 -30 49 3 12 48 -24 79
-49 42z"/>
<path d="M758 4805 c-10 -22 -9 -29 9 -47 l21 -20 18 27 c13 20 15 31 7 44
-17 26 -42 25 -55 -4z"/>
<path d="M1364 4806 c-10 -40 2 -58 33 -54 25 3 28 7 28 38 0 31 -3 35 -27 38
-22 3 -29 -2 -34 -22z"/>
<path d="M8280 4816 c-20 -26 -8 -61 22 -64 22 -3 29 2 34 22 3 14 4 33 0 41
-7 19 -40 19 -56 1z"/>
<path d="M8380 4810 c-13 -24 -5 -56 16 -64 20 -8 42 40 28 62 -16 24 -32 25
-44 2z"/>
<path d="M590 4800 c-14 -27 -3 -62 18 -58 22 4 27 51 8 67 -12 10 -17 8 -26
-9z"/>
<path d="M8459 4794 c-16 -20 0 -49 27 -49 14 0 20 8 22 33 3 26 0 32 -16 32
-11 0 -25 -7 -33 -16z"/>
<path d="M8541 4796 c-19 -23 -10 -61 14 -61 14 0 21 8 23 26 4 33 -20 56 -37
35z"/>
<path d="M513 4793 c-29 -11 -6 -63 28 -63 17 0 34 43 24 60 -6 10 -31 12 -52
3z"/>
<path d="M3147 4724 c-10 -11 -9 -119 3 -148 17 -47 100 -73 119 -38 10 19 -3
141 -19 172 -7 16 -90 27 -103 14z"/>
<path d="M6246 4708 c-11 -16 -16 -46 -16 -100 0 -72 2 -78 20 -78 16 0 72 22
87 34 2 1 7 33 12 71 12 82 5 95 -50 95 -28 0 -42 -6 -53 -22z"/>
<path d="M680 4680 c-14 -26 -5 -70 14 -70 25 0 40 29 30 57 -12 34 -30 39
-44 13z"/>
<path d="M766 4684 c-10 -27 -7 -61 8 -73 12 -10 19 -8 35 8 25 25 26 30 5 59
-18 26 -39 29 -48 6z"/>
<path d="M981 4678 c-22 -61 39 -107 74 -55 13 20 14 29 4 51 -16 34 -66 37
-78 4z"/>
<path d="M1130 4679 c-24 -44 10 -96 48 -73 35 22 21 94 -18 94 -11 0 -24 -9
-30 -21z"/>
<path d="M1254 4686 c-3 -8 -4 -27 -2 -43 2 -22 9 -29 30 -31 30 -4 43 20 32
62 -4 19 -13 26 -30 26 -14 0 -27 -6 -30 -14z"/>
<path d="M1372 4688 c-14 -14 -15 -47 -3 -66 13 -22 45 -9 56 22 8 23 6 30
-10 42 -23 17 -28 17 -43 2z"/>
<path d="M6046 4678 c-22 -20 -25 -32 -27 -98 -2 -111 -6 -103 49 -95 61 9 72
19 72 69 0 23 4 57 10 76 15 53 5 70 -40 70 -26 0 -47 -7 -64 -22z"/>
<path d="M7894 4679 c-17 -19 -17 -23 -3 -47 11 -20 23 -27 44 -27 27 0 30 4
33 33 6 58 -37 82 -74 41z"/>
<path d="M8036 4684 c-3 -9 -6 -29 -6 -45 0 -22 6 -30 24 -35 36 -9 66 12 66
44 0 16 -5 33 -12 40 -17 17 -65 15 -72 -4z"/>
<path d="M8283 4692 c-16 -10 -25 -54 -14 -70 4 -8 19 -12 32 -10 21 3 24 8
24 43 0 40 -16 54 -42 37z"/>
<path d="M592 4658 c2 -28 7 -33 28 -33 21 0 25 5 25 30 0 25 -4 30 -28 33
-27 3 -28 1 -25 -30z"/>
<path d="M8372 4678 c-27 -27 0 -77 34 -64 10 4 14 16 12 38 -3 35 -25 47 -46
26z"/>
<path d="M8457 4684 c-4 -4 -7 -20 -7 -36 0 -32 28 -39 51 -12 21 25 -21 71
-44 48z"/>
<path d="M3564 4655 c-4 -9 -3 -56 2 -103 l9 -87 39 -18 c21 -10 52 -17 70
-15 l31 3 -4 100 c-2 55 -4 101 -5 102 -2 2 -23 7 -47 12 -24 5 -54 13 -66 16
-17 5 -25 3 -29 -10z"/>
<path d="M5845 4651 l-60 -16 -6 -95 c-3 -52 -4 -98 -2 -102 8 -15 74 -8 114
12 l40 21 -3 96 c-2 54 -7 97 -13 98 -5 2 -37 -5 -70 -14z"/>
<path d="M1478 4629 c-25 -14 -26 -124 -2 -133 26 -10 42 -7 59 11 20 20 13
87 -12 115 -18 21 -22 21 -45 7z"/>
<path d="M7721 4614 c-25 -32 -27 -86 -5 -108 21 -21 29 -20 54 6 27 30 28
103 1 118 -27 14 -27 14 -50 -16z"/>
<path d="M3832 4611 c-8 -5 -9 -39 -5 -107 l6 -101 58 -17 c92 -28 94 -26 94
79 1 107 -7 133 -37 139 -49 10 -106 13 -116 7z"/>
<path d="M5587 4611 c-69 -10 -75 -20 -79 -136 l-3 -100 45 1 c25 0 61 8 81
16 l36 16 7 98 c7 97 2 116 -29 113 -5 -1 -31 -5 -58 -8z"/>
<path d="M7599 4613 c-30 -8 -41 -111 -15 -132 18 -15 50 -1 66 29 17 32 12
88 -9 100 -11 5 -21 9 -23 9 -2 -1 -10 -3 -19 -6z"/>
<path d="M1593 4559 c7 -59 20 -79 52 -79 29 0 36 18 28 80 l-6 50 -40 0 -40
0 6 -51z"/>
<path d="M1745 4593 c-13 -13 -16 -27 -11 -62 3 -25 12 -51 19 -57 20 -20 52
-25 71 -11 14 11 16 21 10 65 -10 77 -49 105 -89 65z"/>
<path d="M7424 4575 c-7 -19 -14 -52 -14 -74 0 -35 4 -42 25 -47 41 -10 71 17
78 71 9 60 -4 85 -44 85 -25 0 -33 -6 -45 -35z"/>
<path d="M525 4570 c-15 -25 6 -48 48 -52 23 -3 49 -6 57 -9 10 -3 16 5 18 25
4 37 -11 54 -33 36 -12 -10 -19 -10 -27 -2 -15 15 -55 16 -63 2z"/>
<path d="M2086 4556 c-7 -29 3 -116 16 -132 14 -18 77 -27 94 -13 9 8 14 32
14 76 0 64 0 64 -35 79 -52 22 -82 18 -89 -10z"/>
<path d="M2803 4564 c-20 -14 -23 -26 -23 -78 0 -88 29 -108 98 -66 33 20 33
21 30 88 l-3 67 -40 2 c-24 2 -49 -4 -62 -13z"/>
<path d="M7063 4565 c-20 -14 -23 -25 -23 -79 0 -80 13 -94 70 -77 50 15 62
37 58 109 l-3 57 -40 3 c-25 2 -49 -3 -62 -13z"/>
<path d="M8444 4554 c-9 -35 16 -63 35 -40 16 20 6 66 -14 66 -8 0 -18 -12
-21 -26z"/>
<path d="M8505 4560 c-9 -28 6 -43 36 -38 18 2 24 9 24 28 0 34 -50 42 -60 10z"/>
<path d="M684 4556 c-3 -8 -4 -25 -2 -38 2 -17 9 -23 28 -23 21 0 25 5 25 29
0 21 -6 31 -23 37 -16 6 -24 5 -28 -5z"/>
<path d="M4116 4554 c-11 -10 -15 -25 -12 -38 3 -12 6 -54 6 -93 0 -86 10 -97
110 -115 53 -9 65 -8 74 4 12 16 6 211 -7 224 -4 4 -31 11 -60 15 -28 5 -61
11 -73 14 -13 4 -27 0 -38 -11z"/>
<path d="M6378 4556 c-11 -8 -20 -33 -24 -67 -6 -52 -5 -55 20 -67 34 -15 69
-15 84 0 7 7 12 33 12 60 0 70 -47 108 -92 74z"/>
<path d="M878 4549 c-34 -19 -10 -89 30 -89 31 0 37 73 8 92 -14 10 -17 9 -38
-3z"/>
<path d="M5268 4553 c-25 -2 -51 -10 -58 -17 -6 -8 -13 -61 -15 -119 -6 -119
2 -138 52 -119 16 6 44 13 63 16 19 4 45 14 58 24 21 17 23 24 20 117 l-3 100
-35 1 c-19 0 -56 -1 -82 -3z"/>
<path d="M8170 4540 c-23 -23 -24 -33 -10 -61 15 -27 45 -24 59 7 23 51 -13
90 -49 54z"/>
<path d="M8355 4549 c-4 -5 -4 -21 -1 -35 5 -19 12 -24 28 -22 26 4 43 30 35
52 -7 18 -52 22 -62 5z"/>
<path d="M1010 4542 c-35 -12 -41 -65 -10 -82 32 -17 60 -3 60 29 0 32 -28 61
-50 53z"/>
<path d="M1257 4543 c-11 -10 -8 -71 3 -78 12 -8 46 10 53 29 10 26 -4 56 -27
56 -13 0 -26 -3 -29 -7z"/>
<path d="M2300 4475 c0 -73 1 -76 28 -86 15 -6 43 -13 64 -16 30 -5 38 -2 48
17 16 30 8 139 -11 151 -8 5 -40 9 -71 9 l-58 0 0 -75z"/>
<path d="M2560 4531 c-5 -11 -10 -46 -10 -79 0 -79 12 -90 83 -70 l52 15 3 76
3 77 -60 0 c-49 0 -62 -4 -71 -19z"/>
<path d="M6562 4473 l3 -78 52 -14 c71 -19 83 -8 83 71 0 88 -9 98 -81 98
l-60 0 3 -77z"/>
<path d="M6823 4538 c-14 -18 -23 -131 -11 -151 11 -21 46 -22 98 -1 l40 16 0
74 0 74 -59 0 c-35 0 -63 -5 -68 -12z"/>
<path d="M7907 4532 c-34 -37 -9 -90 37 -78 23 6 27 11 24 38 -2 18 -12 37
-24 44 -18 13 -23 12 -37 -4z"/>
<path d="M8047 4532 c-24 -26 -22 -69 3 -77 49 -15 80 43 42 78 -23 21 -25 21
-45 -1z"/>
<path d="M1126 4524 c-17 -44 7 -81 43 -69 26 8 38 50 21 70 -16 20 -56 19
-64 -1z"/>
<path d="M4454 4505 c-15 -11 -17 -28 -15 -116 3 -120 10 -139 52 -139 16 0
46 -7 66 -15 19 -8 51 -15 69 -15 43 0 47 15 40 141 -5 103 -20 129 -76 129
-15 0 -48 6 -73 14 -37 11 -49 11 -63 1z"/>
<path d="M4990 4505 c-14 -8 -48 -14 -77 -15 -39 0 -55 -4 -61 -17 -12 -23
-25 -214 -16 -236 8 -21 68 -22 104 -2 14 8 39 14 56 15 54 0 64 23 64 143 0
95 -2 107 -19 117 -24 12 -20 12 -51 -5z"/>
<path d="M556 4467 c-21 -15 -15 -51 10 -61 23 -9 42 40 23 59 -13 13 -18 13
-33 2z"/>
<path d="M8510 4465 c-15 -18 -5 -65 14 -65 26 0 36 64 12 73 -8 3 -20 -1 -26
-8z"/>
<path d="M8362 4448 c-27 -27 -3 -90 25 -67 7 7 13 22 13 34 0 30 -22 49 -38
33z"/>
<path d="M692 4438 c-17 -17 -15 -32 8 -53 28 -25 45 -6 41 48 -1 20 -31 23
-49 5z"/>
<path d="M1453 4433 c-19 -7 -16 -27 7 -48 27 -24 25 -41 -5 -61 -14 -9 -25
-23 -25 -30 0 -17 37 -19 42 -3 2 6 22 14 43 18 l40 7 -1 47 c0 26 -4 51 -10
56 -12 11 -75 21 -91 14z"/>
<path d="M3173 4366 c7 -91 13 -103 65 -126 54 -25 64 -13 56 71 -9 104 -10
107 -52 118 -74 21 -76 20 -69 -63z"/>
<path d="M8272 4428 c-17 -17 -15 -58 3 -64 20 -8 45 13 45 37 0 24 -33 42
-48 27z"/>
<path d="M770 4407 c0 -28 17 -47 42 -47 14 0 18 8 18 35 0 32 -2 35 -30 35
-25 0 -30 -4 -30 -23z"/>
<path d="M1349 4414 c-16 -20 0 -49 27 -49 14 0 20 8 22 33 3 26 0 32 -16 32
-11 0 -25 -7 -33 -16z"/>
<path d="M6222 4413 c-15 -14 -21 -35 -26 -93 -8 -100 -1 -109 58 -81 51 25
66 57 66 144 l0 47 -39 0 c-23 0 -47 -7 -59 -17z"/>
<path d="M7692 4403 c-32 -79 -20 -111 37 -98 26 6 30 11 36 55 8 59 3 70 -34
70 -22 0 -31 -7 -39 -27z"/>
<path d="M880 4399 c-17 -31 13 -74 40 -59 22 12 25 32 10 61 -14 25 -36 24
-50 -2z"/>
<path d="M8167 4405 c-28 -21 -19 -59 15 -63 22 -3 29 2 34 22 4 16 1 32 -6
41 -15 18 -20 18 -43 0z"/>
<path d="M1244 4385 c-9 -37 15 -62 45 -45 33 17 25 64 -11 68 -22 3 -29 -2
-34 -23z"/>
<path d="M1617 4403 c-10 -9 -8 -96 2 -111 4 -8 24 -14 42 -15 34 -2 34 -2 37
45 2 37 -1 51 -17 67 -21 21 -51 27 -64 14z"/>
<path d="M990 4385 c-28 -34 22 -102 56 -74 17 14 19 60 2 77 -16 16 -43 15
-58 -3z"/>
<path d="M1130 4379 c-7 -11 -9 -32 -6 -45 5 -18 13 -24 35 -24 32 0 45 26 35
67 -8 30 -49 31 -64 2z"/>
<path d="M7814 4385 c-9 -21 3 -45 21 -45 10 0 15 10 15 30 0 32 -26 43 -36
15z"/>
<path d="M7904 4386 c-3 -8 -4 -27 -2 -43 3 -24 7 -28 33 -28 25 0 30 4 33 28
2 16 -2 35 -9 43 -15 18 -48 18 -55 0z"/>
<path d="M8042 4388 c-7 -7 -12 -27 -12 -44 0 -54 58 -57 75 -3 14 42 -33 77
-63 47z"/>
<path d="M3374 4377 c-3 -8 -2 -52 3 -98 8 -82 8 -83 38 -89 17 -4 40 -12 53
-19 19 -10 23 -9 30 8 4 11 5 55 2 98 -5 71 -7 79 -30 89 -47 22 -90 27 -96
11z"/>
<path d="M7433 4375 c-31 -13 -33 -17 -33 -68 0 -60 11 -72 58 -60 35 8 42 19
42 70 0 75 -10 83 -67 58z"/>
<path d="M554 4366 c-10 -26 0 -51 21 -51 16 0 20 7 20 30 0 33 -30 49 -41 21z"/>
<path d="M1754 4354 c-4 -15 -3 -43 2 -62 7 -27 16 -37 37 -43 47 -13 57 -3
57 57 0 58 -14 74 -64 74 -19 0 -27 -7 -32 -26z"/>
<path d="M8490 4360 c-8 -5 -27 -10 -42 -10 -24 0 -28 -4 -28 -30 0 -22 5 -30
18 -30 10 0 22 4 28 9 5 5 25 11 44 13 30 3 35 7 35 28 0 27 -28 38 -55 20z"/>
<path d="M621 4347 c-27 -27 4 -66 38 -47 28 14 26 34 -3 48 -17 7 -27 7 -35
-1z"/>
<path d="M1915 4347 c-4 -8 -5 -38 -3 -68 3 -51 4 -54 41 -68 33 -12 39 -12
56 3 15 13 17 27 14 64 -6 56 -16 68 -65 77 -29 6 -39 4 -43 -8z"/>
<path d="M3004 4349 c-38 -19 -41 -149 -3 -149 5 0 25 7 45 15 l35 14 -3 63
c-3 59 -5 63 -28 65 -14 1 -35 -3 -46 -8z"/>
<path d="M7260 4347 c-22 -11 -25 -20 -28 -69 -3 -66 11 -81 65 -66 37 10 46
31 41 99 -3 39 -6 44 -28 47 -14 1 -36 -4 -50 -11z"/>
<path d="M704 4326 c-10 -26 1 -51 21 -51 23 0 32 30 15 50 -16 19 -29 19 -36
1z"/>
<path d="M8352 4319 c-10 -16 -10 -24 -1 -35 21 -26 41 -17 37 18 -4 38 -19
45 -36 17z"/>
<path d="M3597 4323 c-9 -8 -9 -146 -1 -168 8 -20 85 -55 120 -55 23 0 24 2
24 83 0 98 -9 115 -71 134 -50 15 -63 16 -72 6z"/>
<path d="M5822 4316 c-24 -6 -47 -18 -52 -26 -4 -8 -9 -53 -11 -100 -4 -85 -4
-85 21 -88 14 -2 47 7 73 18 l47 21 1 57 c0 31 4 66 8 77 11 25 -4 55 -27 54
-9 -1 -36 -6 -60 -13z"/>
<path d="M2097 4313 c-4 -3 -7 -30 -7 -58 0 -64 27 -95 83 -95 l37 0 0 70 c0
66 -1 71 -26 80 -29 11 -78 13 -87 3z"/>
<path d="M2802 4310 c-21 -9 -23 -15 -20 -77 3 -68 3 -68 34 -71 19 -2 40 5
57 19 25 19 28 26 25 78 l-3 56 -35 2 c-19 1 -45 -2 -58 -7z"/>
<path d="M6367 4309 c-13 -8 -17 -23 -17 -63 0 -46 4 -56 25 -70 13 -9 40 -16
60 -16 l35 0 0 70 c0 48 -4 72 -12 74 -37 12 -75 13 -91 5z"/>
<path d="M7063 4310 c-24 -10 -39 -71 -28 -120 5 -24 12 -30 33 -30 15 0 42 9
60 20 32 20 33 22 30 78 l-3 57 -35 2 c-19 1 -45 -2 -57 -7z"/>
<path d="M792 4278 c3 -36 31 -50 42 -22 10 26 -3 54 -25 54 -17 0 -20 -6 -17
-32z"/>
<path d="M1341 4291 c-14 -25 -4 -51 19 -51 23 0 43 24 38 47 -5 26 -44 29
-57 4z"/>
<path d="M8254 4284 c-10 -41 27 -57 49 -22 14 21 2 48 -22 48 -14 0 -23 -9
-27 -26z"/>
<path d="M887 4283 c-11 -10 -8 -61 4 -68 19 -12 59 4 59 24 0 34 -44 64 -63
44z"/>
<path d="M2304 4276 c-3 -7 -4 -41 -2 -76 l3 -63 45 -13 c88 -27 100 -19 100
66 0 65 -20 86 -88 94 -39 4 -54 2 -58 -8z"/>
<path d="M2606 4280 c-45 -9 -56 -22 -56 -72 0 -20 -2 -43 -5 -51 -3 -7 2 -24
13 -37 l18 -23 55 20 54 19 0 74 c0 84 -2 86 -79 70z"/>
<path d="M6567 4284 c-4 -4 -7 -40 -7 -79 l0 -72 59 -13 c33 -7 64 -9 70 -6 6
4 11 35 11 70 0 47 -4 67 -17 78 -20 17 -105 33 -116 22z"/>
<path d="M6865 4281 c-48 -7 -65 -34 -65 -103 0 -42 17 -78 38 -78 16 0 98 35
104 44 4 6 8 39 8 72 0 47 -4 63 -16 68 -9 3 -19 5 -22 5 -4 -1 -25 -5 -47 -8z"/>
<path d="M8164 4282 c-17 -11 -25 -45 -15 -61 6 -9 18 -12 36 -7 22 6 26 11
23 39 -3 32 -22 44 -44 29z"/>
<path d="M3844 4259 c-13 -21 -4 -161 11 -185 13 -20 89 -54 130 -57 19 -2 20
5 23 94 3 95 2 96 -25 114 -15 10 -41 21 -57 26 -17 4 -41 11 -52 14 -14 4
-25 2 -30 -6z"/>
<path d="M5579 4255 c-78 -21 -86 -30 -93 -104 -13 -141 -6 -157 58 -127 19 9
43 16 53 16 36 0 51 31 58 117 6 61 4 87 -5 98 -7 8 -15 14 -19 14 -3 -1 -27
-7 -52 -14z"/>
<path d="M1133 4253 c-17 -6 -17 -58 0 -71 9 -8 20 -7 37 1 57 29 22 94 -37
70z"/>
<path d="M7907 4253 c-4 -3 -7 -19 -7 -35 0 -22 6 -31 27 -39 22 -8 30 -7 40
7 17 23 16 39 -3 58 -16 16 -46 21 -57 9z"/>
<path d="M624 4239 c-8 -14 31 -53 45 -45 6 4 11 18 11 32 0 19 -5 24 -24 24
-14 0 -28 -5 -32 -11z"/>
<path d="M7687 4232 c-18 -19 -24 -106 -9 -116 21 -13 52 8 66 45 20 49 20 54
0 73 -20 21 -37 20 -57 -2z"/>
<path d="M8415 4240 c-3 -6 -3 -19 0 -31 10 -29 39 -20 43 14 3 21 -1 27 -17
27 -11 0 -23 -5 -26 -10z"/>
<path d="M1494 4226 c-3 -8 -4 -31 -2 -52 4 -46 45 -77 75 -58 25 16 23 92 -2
111 -24 17 -64 17 -71 -1z"/>
<path d="M710 4215 c-8 -10 -9 -19 0 -35 14 -26 44 -22 48 7 4 28 -30 49 -48
28z"/>
<path d="M1432 4195 c2 -14 8 -26 13 -26 6 0 11 12 13 26 2 18 -1 25 -13 25
-12 0 -15 -7 -13 -25z"/>
<path d="M7562 4204 c-20 -14 -23 -23 -20 -67 3 -58 24 -73 59 -41 31 28 22
124 -11 124 -3 0 -16 -7 -28 -16z"/>
<path d="M8334 4205 c-10 -25 4 -47 28 -43 17 2 24 11 26 31 3 23 0 27 -23 27
-14 0 -28 -7 -31 -15z"/>
<path d="M797 4194 c-12 -13 -7 -51 8 -64 22 -18 37 0 33 36 -3 28 -26 43 -41
28z"/>
<path d="M1340 4185 c-16 -19 -3 -55 20 -55 25 0 39 48 19 61 -19 12 -25 11
-39 -6z"/>
<path d="M4133 4187 c-4 -7 -7 -56 -5 -110 l3 -98 32 -13 c57 -24 102 -38 122
-40 19 -1 20 6 23 105 2 77 -1 109 -10 115 -11 8 -85 33 -145 50 -6 1 -15 -3
-20 -9z"/>
<path d="M8258 4189 c-22 -12 -24 -55 -3 -63 36 -13 69 31 45 59 -14 17 -19
18 -42 4z"/>
<path d="M8474 4165 c-8 -31 7 -50 31 -41 22 8 16 60 -7 64 -12 2 -19 -5 -24
-23z"/>
<path d="M567 4173 c-16 -16 -6 -43 19 -49 31 -8 48 7 39 35 -6 20 -43 29 -58
14z"/>
<path d="M1776 4168 c-11 -6 -16 -23 -16 -52 0 -52 24 -79 67 -74 26 3 28 7
31 51 2 27 -2 54 -8 62 -14 17 -54 24 -74 13z"/>
<path d="M892 4158 c-28 -28 -1 -75 38 -63 24 8 26 37 4 59 -19 19 -26 20 -42
4z"/>
<path d="M1240 4144 c-14 -36 -13 -41 11 -47 20 -5 59 22 59 43 0 10 -32 30
-50 30 -6 0 -15 -12 -20 -26z"/>
<path d="M7405 4154 c-11 -12 -15 -30 -13 -63 3 -42 5 -46 32 -49 16 -2 33 1
38 6 16 16 28 95 16 110 -15 17 -54 15 -73 -4z"/>
<path d="M7801 4161 c-18 -11 -7 -57 16 -65 27 -11 46 16 34 47 -11 28 -26 33
-50 18z"/>
<path d="M8169 4163 c-19 -5 -31 -37 -22 -59 12 -33 67 -1 61 36 -3 25 -13 30
-39 23z"/>
<path d="M647 4153 c-11 -10 -8 -51 4 -59 18 -10 42 21 34 45 -6 21 -25 28
-38 14z"/>
<path d="M3134 4146 c-3 -7 -4 -35 -2 -62 3 -41 6 -49 23 -49 16 0 21 8 23 39
2 22 1 50 -2 63 -7 25 -33 31 -42 9z"/>
<path d="M8411 4138 c-12 -32 10 -58 34 -38 20 17 16 54 -8 58 -11 2 -20 -5
-26 -20z"/>
<path d="M8051 4124 c-22 -16 -29 -68 -11 -79 20 -13 60 24 60 54 0 35 -20 45
-49 25z"/>
<path d="M990 4102 c0 -40 31 -67 59 -52 39 21 15 80 -33 80 -22 0 -26 -4 -26
-28z"/>
<path d="M1130 4109 c-13 -23 -5 -69 11 -69 29 0 49 22 49 55 0 31 -3 35 -25
35 -14 0 -29 -8 -35 -21z"/>
<path d="M1927 4123 c-10 -10 -8 -82 3 -102 11 -22 64 -45 85 -37 23 8 21 108
-3 129 -18 17 -73 23 -85 10z"/>
<path d="M2977 4112 c-22 -24 -23 -105 -2 -122 13 -11 22 -10 50 3 27 13 35
24 43 59 5 25 5 50 0 61 -12 23 -70 23 -91 -1z"/>
<path d="M7236 4117 c-14 -10 -17 -25 -14 -72 3 -52 6 -60 24 -63 48 -7 97 72
79 128 -7 24 -61 28 -89 7z"/>
<path d="M7907 4123 c-15 -14 -6 -53 15 -67 29 -21 35 -20 48 5 20 37 -35 91
-63 62z"/>
<path d="M4955 4094 c-27 -7 -63 -17 -78 -20 -15 -4 -31 -14 -36 -23 -4 -9 -8
-62 -9 -118 -1 -118 5 -125 79 -97 24 9 58 18 74 21 17 3 40 14 52 25 19 18
21 30 21 116 0 121 -4 125 -103 96z"/>
<path d="M1340 4075 c-16 -20 -6 -45 19 -45 23 0 32 18 19 43 -11 21 -22 22
-38 2z"/>
<path d="M2818 4078 c-24 -6 -38 -17 -42 -31 -10 -38 -7 -92 7 -111 12 -17 15
-17 55 -1 44 18 50 28 54 87 2 33 -15 70 -31 67 -3 -1 -22 -5 -43 -11z"/>
<path d="M3401 4076 c-14 -17 -4 -139 13 -160 14 -17 102 -56 110 -48 3 3 6
40 6 82 0 67 -3 79 -23 98 -13 12 -31 22 -40 22 -9 0 -19 5 -22 10 -9 14 -31
12 -44 -4z"/>
<path d="M6024 4075 c-48 -21 -55 -37 -57 -121 -2 -90 5 -97 69 -67 48 22 63
53 67 134 2 62 1 64 -23 66 -14 1 -39 -4 -56 -12z"/>
<path d="M7073 4078 c-26 -9 -35 -19 -43 -47 -14 -50 -12 -77 5 -95 13 -13 21
-13 53 -2 54 19 79 85 52 137 -12 21 -20 22 -67 7z"/>
<path d="M650 4049 c-17 -30 -5 -52 24 -47 18 4 30 -2 46 -24 26 -35 48 -36
56 -3 8 31 -10 55 -42 55 -13 0 -33 9 -44 20 -25 25 -27 25 -40 -1z"/>
<path d="M8396 4038 c-19 -27 -12 -38 25 -38 26 0 29 -3 29 -30 0 -22 5 -30
18 -30 48 1 59 59 12 70 -16 4 -26 14 -28 28 -4 29 -36 29 -56 0z"/>
<path d="M885 4039 c-4 -5 -4 -21 -1 -35 5 -19 13 -24 36 -24 26 0 30 3 30 29
0 28 -14 41 -45 41 -8 0 -17 -5 -20 -11z"/>
<path d="M1233 4024 c-16 -25 -16 -27 2 -41 27 -19 48 -13 55 17 13 50 -28 67
-57 24z"/>
<path d="M1490 4030 c0 -11 7 -20 15 -20 8 0 15 9 15 20 0 11 -7 20 -15 20 -8
0 -15 -9 -15 -20z"/>
<path d="M7797 4043 c-13 -13 -7 -40 14 -59 26 -23 55 -8 51 27 -4 32 -45 53
-65 32z"/>
<path d="M8152 4038 c-15 -15 -16 -44 -1 -53 5 -4 21 -4 35 -1 20 5 25 12 22
34 -3 30 -35 41 -56 20z"/>
<path d="M2307 4033 c-4 -3 -7 -35 -7 -70 l0 -64 47 -20 c26 -11 58 -19 72
-17 25 3 26 6 26 68 l0 65 -45 22 c-45 22 -81 29 -93 16z"/>
<path d="M6567 4033 c-4 -3 -7 -35 -7 -69 l0 -64 40 -20 c72 -37 110 -20 110
47 0 56 -12 74 -57 94 -46 20 -75 24 -86 12z"/>
<path d="M8327 4024 c-12 -12 -8 -51 6 -63 21 -17 55 24 41 47 -12 19 -36 27
-47 16z"/>
<path d="M1414 4005 c-8 -19 3 -35 26 -35 19 0 30 17 23 38 -6 17 -42 15 -49
-3z"/>
<path d="M1637 4007 c-7 -20 5 -68 25 -95 11 -16 24 -23 40 -20 20 3 23 9 26
49 2 33 -2 51 -13 63 -20 19 -71 21 -78 3z"/>
<path d="M7542 4004 c-19 -13 -23 -23 -20 -62 4 -56 26 -67 64 -31 18 17 24
33 24 66 0 38 -3 43 -23 43 -12 0 -33 -7 -45 -16z"/>
<path d="M584 3996 c-3 -8 -4 -23 -2 -33 5 -25 51 -25 56 0 7 36 -42 65 -54
33z"/>
<path d="M997 4003 c-21 -20 6 -83 35 -83 19 0 38 20 38 40 0 32 -53 63 -73
43z"/>
<path d="M3617 4003 c-3 -5 -2 -45 1 -90 4 -70 8 -84 26 -96 33 -20 103 -40
115 -33 11 7 8 101 -5 163 -6 34 -123 80 -137 56z"/>
<path d="M5787 3992 c-43 -19 -43 -21 -52 -123 -7 -87 -1 -96 57 -76 71 25 77
34 84 130 l7 87 -29 -1 c-16 0 -46 -8 -67 -17z"/>
<path d="M8040 3990 c-22 -22 -25 -37 -11 -59 14 -22 60 -5 67 24 13 53 -19
72 -56 35z"/>
<path d="M1789 3953 c-22 -58 14 -128 63 -121 18 2 24 10 26 37 5 51 -4 74
-37 94 -38 22 -40 22 -52 -10z"/>
<path d="M7410 3963 c-35 -24 -40 -33 -40 -81 0 -50 19 -63 59 -39 32 19 49
77 32 113 -13 29 -19 29 -51 7z"/>
<path d="M1485 3949 c-9 -28 9 -46 29 -30 12 10 13 18 5 32 -13 25 -26 24 -34
-2z"/>
<path d="M3138 3959 c-36 -21 -32 -129 5 -129 25 0 57 45 57 81 0 52 -24 70
-62 48z"/>
<path d="M884 3925 c-11 -45 54 -91 70 -49 10 25 7 32 -16 54 -29 27 -46 25
-54 -5z"/>
<path d="M8156 3935 c-17 -17 -20 -34 -10 -59 8 -21 27 -20 48 3 36 40 0 93
-38 56z"/>
<path d="M3859 3919 c-1 -8 0 -50 1 -93 2 -68 5 -82 23 -97 12 -10 27 -18 34
-19 7 0 28 -7 47 -17 30 -14 37 -14 52 -2 13 11 15 25 9 84 -3 38 -8 79 -11
90 -8 33 -153 83 -155 54z"/>
<path d="M5580 3924 c-8 -3 -33 -14 -56 -25 l-41 -19 -7 -92 c-7 -106 0 -121
43 -95 16 9 38 17 49 17 11 0 29 8 40 18 17 14 21 31 24 107 3 84 2 90 -17 92
-11 1 -27 0 -35 -3z"/>
<path d="M1938 3908 c-3 -7 -3 -34 0 -59 3 -41 7 -48 39 -63 46 -22 63 -8 63
50 0 32 -6 49 -22 64 -24 22 -73 27 -80 8z"/>
<path d="M2974 3895 c-21 -21 -25 -33 -22 -73 3 -42 6 -47 29 -50 34 -4 79 38
79 75 -1 76 -37 97 -86 48z"/>
<path d="M7231 3896 c-18 -19 -22 -33 -19 -72 3 -42 6 -49 25 -52 12 -2 34 5
47 15 22 16 25 26 26 76 0 56 0 57 -28 57 -17 0 -38 -10 -51 -24z"/>
<path d="M1138 3889 c-21 -12 -24 -62 -4 -78 10 -8 19 -5 40 14 27 25 30 33
20 59 -7 18 -31 20 -56 5z"/>
<path d="M7907 3893 c-4 -3 -7 -19 -7 -34 0 -21 7 -32 29 -43 33 -17 51 -6 51
30 0 33 -54 67 -73 47z"/>
<path d="M1321 3868 c-12 -19 -11 -23 5 -35 10 -7 23 -12 28 -10 17 6 29 34
23 51 -9 23 -40 20 -56 -6z"/>
<path d="M1530 3871 c-15 -29 -12 -45 11 -75 26 -34 68 -36 71 -3 2 38 -3 71
-14 84 -16 19 -56 16 -68 -6z"/>
<path d="M6208 3871 c-45 -19 -58 -47 -61 -127 -2 -53 0 -59 19 -62 12 -2 37
6 56 18 34 20 36 24 42 92 9 89 -1 103 -56 79z"/>
<path d="M7650 3875 c-20 -24 -24 -89 -6 -104 35 -29 94 46 75 97 -10 26 -50
30 -69 7z"/>
<path d="M3237 3874 c-9 -10 -9 -136 1 -150 11 -19 90 -56 102 -49 5 3 10 38
10 76 0 61 -3 73 -25 94 -13 14 -31 25 -39 25 -8 0 -21 2 -28 5 -8 3 -17 2
-21 -1z"/>
<path d="M2122 3858 c-20 -20 -14 -92 9 -122 17 -22 28 -27 58 -24 36 3 36 3
39 53 2 42 -1 54 -20 72 -29 26 -71 36 -86 21z"/>
<path d="M6372 3858 c-32 -32 -5 -118 44 -141 42 -20 39 -20 57 -2 19 18 11
103 -12 127 -22 22 -73 32 -89 16z"/>
<path d="M2794 3841 c-21 -19 -40 -103 -28 -122 7 -13 48 -11 79 3 29 13 38
38 33 94 -3 35 -6 39 -33 42 -19 2 -38 -4 -51 -17z"/>
<path d="M7052 3844 c-31 -21 -44 -59 -36 -100 6 -30 10 -34 39 -34 18 0 44 9
59 21 24 19 27 27 24 73 -3 49 -4 51 -33 54 -16 1 -40 -5 -53 -14z"/>
<path d="M737 3843 c-13 -12 -7 -50 9 -64 14 -11 18 -10 30 6 18 24 18 30 -2
49 -17 17 -27 20 -37 9z"/>
<path d="M8316 3837 c-24 -18 -18 -61 10 -65 28 -4 48 22 40 53 -7 28 -23 32
-50 12z"/>
<path d="M1238 3829 c-23 -13 -23 -58 -2 -66 26 -10 49 11 49 43 0 31 -18 40
-47 23z"/>
<path d="M1395 3821 c-7 -24 3 -51 21 -51 17 0 37 37 30 56 -8 20 -44 17 -51
-5z"/>
<path d="M1670 3825 c-17 -20 -6 -86 17 -103 10 -7 27 -11 38 -10 17 3 20 10
18 48 -2 32 -8 50 -24 63 -26 21 -33 21 -49 2z"/>
<path d="M4136 3832 c-6 -10 -1 -191 6 -197 14 -13 154 -65 165 -61 9 4 12 30
9 104 -3 108 -7 122 -37 122 -11 0 -32 6 -47 14 -38 19 -89 29 -96 18z"/>
<path d="M5265 3819 c-27 -12 -57 -24 -65 -28 -11 -6 -17 -33 -21 -102 -3 -52
-4 -100 -1 -107 6 -16 34 -10 102 19 79 34 75 27 78 138 3 99 2 101 -20 101
-13 -1 -45 -10 -73 -21z"/>
<path d="M7533 3825 c-25 -17 -46 -74 -37 -98 9 -25 60 -22 78 5 19 27 21 79
4 96 -15 15 -19 15 -45 -3z"/>
<path d="M7811 3831 c-10 -7 -11 -16 -4 -37 11 -32 36 -42 58 -24 13 10 12 16
-1 41 -15 30 -29 35 -53 20z"/>
<path d="M672 3798 c-15 -15 -15 -30 1 -52 18 -25 47 -11 47 24 0 16 -7 30
-16 34 -20 8 -18 8 -32 -6z"/>
<path d="M8381 3791 c-16 -30 -13 -48 9 -54 24 -6 43 15 38 45 -4 29 -33 35
-47 9z"/>
<path d="M2306 3785 c-8 -21 -8 -88 0 -110 9 -23 81 -57 112 -53 25 3 27 7 30
55 4 66 -5 82 -54 100 -66 25 -81 26 -88 8z"/>
<path d="M2598 3780 c-47 -25 -60 -49 -56 -102 4 -56 24 -67 78 -43 56 25 72
52 68 112 -3 43 -6 48 -28 50 -14 2 -42 -6 -62 -17z"/>
<path d="M3417 3793 c-5 -9 18 -162 24 -166 32 -23 62 -36 85 -39 28 -3 29 -2
32 47 4 68 -16 129 -45 133 -12 2 -27 10 -33 18 -13 15 -56 19 -63 7z"/>
<path d="M5998 3780 c-48 -26 -55 -41 -60 -120 -3 -64 -2 -65 23 -68 34 -4 98
34 104 62 3 11 7 48 8 81 2 53 0 60 -18 62 -11 1 -37 -6 -57 -17z"/>
<path d="M6567 3793 c-12 -11 -7 -109 6 -124 33 -40 120 -66 129 -39 2 6 1 36
-2 68 -5 56 -6 57 -50 79 -47 23 -72 28 -83 16z"/>
<path d="M6848 3780 c-42 -22 -51 -45 -46 -111 4 -54 20 -60 83 -30 49 23 58
42 53 112 -3 39 -6 44 -28 46 -14 2 -42 -6 -62 -17z"/>
<path d="M996 3777 c-17 -13 -17 -15 -2 -45 13 -25 23 -32 46 -32 29 0 34 7
31 40 -2 15 -37 50 -50 50 -4 0 -15 -6 -25 -13z"/>
<path d="M8039 3769 c-28 -28 -22 -63 13 -67 21 -3 30 3 42 25 27 53 -13 84
-55 42z"/>
<path d="M890 3717 c0 -32 42 -71 58 -55 29 29 7 78 -35 78 -17 0 -23 -6 -23
-23z"/>
<path d="M4454 3716 c-7 -28 2 -191 11 -206 3 -5 13 -10 21 -10 7 0 43 -14 79
-31 97 -45 100 -43 102 76 1 54 -2 106 -7 115 -5 9 -40 26 -79 39 -39 13 -74
27 -77 32 -11 19 -44 9 -50 -15z"/>
<path d="M5007 3734 c-3 -3 -41 -18 -83 -33 -90 -30 -90 -30 -89 -166 0 -108
4 -111 100 -66 36 17 71 31 79 31 8 0 18 9 21 21 12 36 14 193 3 206 -11 14
-21 16 -31 7z"/>
<path d="M8136 3716 c-14 -23 -14 -26 0 -40 8 -9 19 -16 23 -16 15 0 41 37 41
58 0 31 -43 30 -64 -2z"/>
<path d="M1550 3709 c-26 -48 36 -132 74 -100 22 18 20 53 -4 83 -26 34 -57
42 -70 17z"/>
<path d="M1947 3714 c-4 -4 -7 -24 -7 -44 0 -62 61 -118 95 -90 21 17 19 83
-2 109 -19 22 -73 38 -86 25z"/>
<path d="M807 3703 c-18 -17 15 -83 42 -83 16 0 24 46 11 69 -10 20 -40 28
-53 14z"/>
<path d="M1316 3691 c-37 -40 10 -83 48 -45 18 17 19 24 10 48 -8 22 -37 20
-58 -3z"/>
<path d="M8227 3689 c-26 -29 -18 -54 18 -54 28 0 30 3 30 35 0 41 -21 49 -48
19z"/>
<path d="M7737 3683 c-15 -14 -6 -41 15 -46 29 -8 38 -1 38 29 0 18 -5 24 -23
24 -13 0 -27 -3 -30 -7z"/>
<path d="M6267 3663 c-3 -5 -8 -22 -11 -40 -8 -35 3 -48 34 -38 29 9 29 85 1
85 -11 0 -22 -3 -24 -7z"/>
<path d="M7516 3649 c-21 -17 -26 -29 -26 -65 0 -60 23 -69 62 -26 35 40 41
112 9 112 -10 0 -30 -9 -45 -21z"/>
<path d="M1677 3653 c-4 -3 -7 -21 -7 -38 0 -37 38 -79 67 -73 28 5 30 71 4
97 -21 21 -51 27 -64 14z"/>
<path d="M2120 3592 c0 -70 19 -94 77 -96 l38 -1 3 52 c3 50 2 52 -35 77 -21
14 -48 26 -60 26 -21 0 -23 -4 -23 -58z"/>
<path d="M2793 3628 c-31 -18 -33 -24 -33 -74 l0 -54 34 0 c21 0 42 9 60 25
23 22 27 32 24 73 -3 42 -6 47 -28 49 -14 1 -40 -7 -57 -19z"/>
<path d="M6374 3615 c-9 -52 2 -81 41 -105 50 -31 79 -24 83 19 6 56 -5 79
-48 101 -55 28 -68 26 -76 -15z"/>
<path d="M7049 3627 c-31 -21 -34 -27 -34 -72 0 -46 2 -50 25 -54 14 -1 39 5
56 14 26 14 33 25 38 61 3 24 3 50 0 59 -9 22 -46 18 -85 -8z"/>
<path d="M5525 3585 l-60 -33 -9 -75 c-5 -41 -6 -82 -3 -91 9 -22 39 -20 97 7
59 26 71 53 74 155 1 60 -1 67 -19 69 -11 1 -47 -13 -80 -32z"/>
<path d="M6182 3599 c-19 -9 -36 -20 -39 -22 -5 -6 -33 -135 -33 -154 0 -18
45 -16 60 2 7 8 18 15 25 15 23 0 32 24 39 96 8 82 0 92 -52 63z"/>
<path d="M1811 3591 c-20 -13 -5 -78 25 -108 45 -45 88 -15 70 51 -13 47 -63
78 -95 57z"/>
<path d="M3119 3590 c-24 -14 -45 -96 -29 -115 29 -35 84 -4 100 56 8 30 8 44
-1 55 -13 16 -46 18 -70 4z"/>
<path d="M7365 3576 c-22 -22 -26 -34 -23 -74 3 -43 5 -47 28 -44 41 4 72 47
68 96 -2 34 -7 42 -25 44 -14 2 -32 -7 -48 -22z"/>
<path d="M2600 3549 c-56 -25 -60 -32 -60 -97 0 -38 4 -54 16 -59 21 -8 91 26
115 55 26 33 26 98 0 112 -24 12 -18 13 -71 -11z"/>
<path d="M6847 3544 l-48 -25 3 -62 c3 -53 6 -62 23 -65 11 -1 41 11 68 27 45
30 47 32 47 79 0 46 -13 73 -34 72 -6 -1 -33 -12 -59 -26z"/>
<path d="M7627 3552 c-26 -29 -38 -69 -27 -97 18 -48 73 -16 86 50 10 56 -25
85 -59 47z"/>
<path d="M3444 3515 c-12 -30 2 -134 19 -153 27 -30 82 -56 102 -48 15 6 17
15 10 79 -8 82 -11 88 -66 116 -47 25 -58 26 -65 6z"/>
<path d="M5994 3509 c-57 -25 -63 -35 -70 -117 -6 -61 -4 -72 9 -78 17 -6 83
28 105 54 13 17 17 148 5 155 -5 2 -26 -4 -49 -14z"/>
<path d="M1687 3493 c-11 -10 -8 -59 4 -86 21 -46 81 -57 94 -16 15 46 -68
133 -98 102z"/>
<path d="M4145 3490 c-6 -10 1 -120 10 -166 3 -15 28 -33 81 -59 67 -33 77
-36 91 -23 12 13 13 29 5 102 -10 93 -21 110 -74 122 -15 4 -33 13 -39 20 -13
16 -65 19 -74 4z"/>
<path d="M5235 3467 l-60 -32 -8 -80 c-10 -100 -4 -125 27 -125 13 0 29 6 35
14 6 8 34 23 61 35 55 24 57 30 62 151 l3 65 -30 2 c-17 1 -56 -12 -90 -30z"/>
<path d="M2799 3427 c-43 -23 -44 -25 -47 -79 -4 -68 9 -76 69 -43 39 20 45
28 50 66 6 42 -3 79 -20 79 -4 0 -28 -10 -52 -23z"/>
<path d="M7080 3443 c-45 -18 -67 -44 -73 -87 -11 -80 5 -92 74 -53 43 24 52
44 47 103 -3 39 -16 49 -48 37z"/>
<path d="M3657 3423 c-13 -12 -7 -124 7 -152 19 -37 88 -83 118 -79 22 3 23 6
20 73 -4 105 -5 107 -70 138 -64 30 -66 30 -75 20z"/>
<path d="M5761 3397 c-24 -12 -49 -31 -57 -42 -10 -17 -20 -107 -15 -152 2
-25 50 -12 100 27 l51 40 0 75 c0 86 -5 90 -79 52z"/>
<path d="M4459 3363 c-1 -10 -1 -56 1 -103 2 -86 15 -120 46 -120 8 0 41 -14
73 -31 85 -45 91 -40 91 76 0 82 -3 98 -20 115 -11 11 -26 20 -34 20 -7 0 -38
14 -69 30 -65 34 -86 37 -88 13z"/>
<path d="M3281 3356 c-19 -23 3 -136 31 -159 37 -29 78 -48 88 -42 16 10 11
97 -8 135 -15 30 -72 80 -92 80 -4 0 -13 -6 -19 -14z"/>
<path d="M2311 3346 c-16 -19 -9 -77 13 -112 17 -25 102 -68 117 -58 5 3 9 31
9 63 0 55 -2 60 -35 85 -44 34 -87 43 -104 22z"/>
<path d="M6567 3353 c-4 -3 -7 -25 -7 -48 0 -50 25 -87 75 -111 50 -24 75 -12
75 36 0 22 -5 49 -10 62 -19 40 -112 83 -133 61z"/>
<path d="M1963 3298 c5 -35 14 -59 29 -74 50 -49 85 -27 74 47 -5 35 -13 48
-37 62 -17 9 -40 17 -51 17 -19 0 -20 -4 -15 -52z"/>
<path d="M6248 3329 c-13 -7 -18 -23 -18 -52 0 -44 17 -68 59 -82 46 -14 54
98 8 130 -25 18 -26 18 -49 4z"/>
<path d="M1596 3254 c-20 -20 -20 -27 4 -74 19 -38 50 -57 70 -45 5 3 10 25
10 49 0 32 -6 48 -23 64 -28 26 -40 27 -61 6z"/>
<path d="M7367 3251 c-51 -33 -77 -121 -41 -135 41 -16 110 69 102 125 -4 30
-26 34 -61 10z"/>
<path d="M1820 3229 c0 -34 13 -64 43 -96 46 -51 94 -5 62 58 -26 52 -45 69
-77 69 -25 0 -28 -4 -28 -31z"/>
<path d="M2125 3239 c-12 -36 4 -86 35 -113 65 -54 94 -43 86 33 -3 36 -11 51
-37 73 -41 33 -75 36 -84 7z"/>
<path d="M3091 3236 c-28 -30 -40 -104 -20 -117 21 -13 23 -12 62 28 30 29 37
44 37 75 0 35 -2 38 -28 38 -17 0 -38 -10 -51 -24z"/>
<path d="M5948 3227 c-42 -28 -48 -36 -48 -67 0 -19 -4 -49 -9 -67 -13 -46 26
-73 61 -40 7 7 24 20 38 28 21 14 28 30 38 89 7 39 10 76 7 81 -11 16 -39 9
-87 -24z"/>
<path d="M6387 3253 c-4 -3 -7 -25 -7 -48 0 -47 25 -83 77 -109 31 -15 33 -15
43 3 26 50 5 113 -49 141 -43 21 -54 24 -64 13z"/>
<path d="M7478 3167 c-29 -27 -45 -92 -27 -113 15 -19 22 -18 51 9 49 43 63
98 29 117 -26 13 -24 14 -53 -13z"/>
<path d="M3214 3155 c-17 -17 -24 -35 -24 -64 0 -48 13 -58 46 -36 29 19 47
60 40 91 -9 33 -34 37 -62 9z"/>
<path d="M4157 3173 c-4 -3 -4 -45 0 -92 7 -96 3 -92 109 -148 58 -30 64 -32
72 -16 5 10 6 56 3 102 l-6 84 -50 28 c-84 48 -113 58 -128 42z"/>
<path d="M2630 3148 c-13 -5 -39 -20 -57 -34 -31 -23 -33 -29 -33 -85 0 -71
13 -75 80 -30 50 34 69 63 70 108 0 39 -23 55 -60 41z"/>
<path d="M6855 3130 c-47 -27 -50 -32 -55 -77 -7 -64 -2 -83 19 -83 26 0 98
50 110 77 17 37 14 100 -5 107 -20 7 -11 10 -69 -24z"/>
<path d="M2782 3044 c-41 -35 -43 -38 -40 -88 4 -63 20 -69 70 -23 51 47 64
130 22 144 -6 2 -29 -13 -52 -33z"/>
<path d="M7042 3052 c-36 -30 -55 -82 -46 -124 8 -38 31 -35 77 7 36 33 38 38
35 87 -4 63 -18 70 -66 30z"/>
<path d="M4975 3025 c-22 -13 -47 -27 -55 -31 -87 -36 -87 -36 -93 -157 -4
-68 -2 -79 15 -88 14 -8 31 -2 79 26 33 19 64 35 68 35 4 0 16 9 25 19 13 14
18 42 22 109 5 110 -3 122 -61 87z"/>
<path d="M5530 3005 c-7 -8 -18 -15 -24 -15 -6 0 -25 -13 -43 -28 -30 -26 -32
-31 -35 -107 -3 -77 -2 -80 20 -83 12 -2 35 7 52 20 16 13 40 31 53 40 27 19
47 82 47 147 0 38 -2 41 -29 41 -16 0 -34 -7 -41 -15z"/>
<path d="M1977 2993 c-24 -23 6 -100 52 -132 53 -38 76 -19 64 55 -9 54 -87
106 -116 77z"/>
<path d="M2932 2967 c-26 -26 -32 -41 -32 -75 0 -39 2 -42 26 -42 16 0 39 13
60 34 28 28 34 42 34 75 0 38 -2 41 -28 41 -19 0 -39 -11 -60 -33z"/>
<path d="M6237 2993 c-12 -12 -7 -68 8 -90 20 -28 82 -66 95 -58 5 3 10 24 10
45 0 64 -80 137 -113 103z"/>
<path d="M7189 2971 c-24 -25 -29 -37 -29 -80 0 -28 4 -51 10 -51 19 0 73 39
91 67 49 74 -9 126 -72 64z"/>
<path d="M3693 2873 c-7 -2 -13 -14 -13 -26 0 -42 29 -132 46 -142 9 -5 31
-22 48 -37 67 -60 89 -18 60 119 -5 25 -89 93 -113 92 -9 0 -22 -3 -28 -6z"/>
<path d="M5225 2837 l-70 -43 -6 -85 c-3 -46 -4 -90 -1 -96 7 -21 36 -15 72
17 19 16 40 29 45 30 6 0 23 12 38 26 27 24 28 29 25 107 -2 63 -6 82 -18 84
-8 2 -46 -17 -85 -40z"/>
<path d="M5712 2841 c-49 -39 -49 -39 -56 -112 -10 -106 10 -114 96 -36 46 41
47 44 54 115 l7 72 -26 0 c-14 0 -47 -17 -75 -39z"/>
<path d="M6085 2848 c-31 -29 -35 -40 -41 -100 -6 -57 -4 -69 9 -74 19 -7 104
51 111 75 5 17 10 96 7 119 -2 24 -51 12 -86 -20z"/>
<path d="M3500 2728 c0 -61 20 -112 59 -149 73 -69 103 -61 90 23 -5 29 -14
65 -20 80 -13 32 -76 78 -107 78 -18 0 -22 -6 -22 -32z"/>
<path d="M4460 2626 l0 -94 34 -26 c19 -14 38 -26 41 -26 4 0 24 -13 45 -30
21 -16 50 -30 64 -30 l26 0 0 95 0 96 -37 22 c-21 12 -60 36 -87 54 -80 54
-86 50 -86 -61z"/>
<path d="M4180 2575 c-9 -11 -11 -33 -6 -72 11 -91 16 -102 61 -128 23 -14 50
-34 60 -45 23 -25 62 -26 67 -2 3 15 1 36 -18 150 -3 17 -9 32 -15 32 -9 0
-68 38 -79 51 -6 7 -46 29 -53 29 -3 0 -10 -7 -17 -15z"/>
<path d="M3940 2465 c-9 -11 -11 -36 -7 -83 4 -58 9 -70 32 -87 16 -11 46 -35
68 -53 22 -18 45 -31 51 -29 6 2 12 35 14 79 l3 75 -65 56 c-35 32 -68 57 -74
57 -5 0 -15 -7 -22 -15z"/>
<path d="M5464 2431 l-62 -50 -7 -75 c-10 -115 6 -123 95 -45 51 44 61 58 70
103 7 28 10 65 8 81 -5 46 -34 42 -104 -14z"/>
<path d="M611 1439 c-13 -34 9 -63 52 -70 19 -3 47 -13 62 -23 l26 -17 -2
-367 c-1 -217 -6 -372 -12 -379 -5 -7 -30 -13 -56 -13 -66 0 -88 -9 -93 -35
-3 -13 -2 -27 1 -32 9 -12 834 -10 843 2 4 6 8 28 8 49 0 22 5 77 12 123 7 45
10 84 7 86 -2 3 -14 8 -26 11 -28 9 -63 -24 -63 -59 0 -18 -16 -41 -47 -73
-57 -56 -109 -70 -271 -74 -93 -2 -105 -1 -118 17 -8 10 -12 26 -10 34 3 9 8
174 12 368 3 193 10 357 14 363 4 7 34 15 65 19 47 5 59 10 66 28 6 15 3 28
-9 43 -15 18 -21 19 -52 10 -86 -25 -274 -22 -377 6 -18 5 -25 1 -32 -17z"/>
<path d="M5239 1431 c-41 -42 -41 -95 2 -139 39 -40 76 -42 118 -6 27 22 31
32 31 74 0 42 -4 52 -31 74 -41 35 -83 34 -120 -3z"/>
<path d="M3285 1419 c-12 -36 5 -49 61 -49 83 0 81 9 87 -370 4 -293 7 -328
24 -360 41 -78 86 -116 173 -149 73 -28 251 -30 320 -4 89 33 157 86 194 150
20 37 21 49 21 383 l0 345 55 5 c53 5 55 6 58 35 l3 31 -168 -1 -168 0 0 -30
c0 -30 1 -30 58 -33 49 -3 59 -6 66 -25 12 -30 31 -326 31 -470 0 -176 -31
-251 -125 -300 -32 -17 -59 -21 -135 -21 -94 -1 -97 0 -138 32 -77 62 -80 77
-83 442 -1 184 2 325 7 330 5 5 36 10 69 12 59 3 60 3 60 32 l0 30 -233 0
c-205 1 -233 -1 -237 -15z"/>
<path d="M4529 1120 c-34 -42 -83 -70 -123 -70 -12 0 -30 -6 -40 -13 -15 -11
-17 -17 -7 -35 7 -13 21 -22 35 -22 13 0 31 -9 41 -21 17 -18 19 -39 20 -202
l0 -181 -25 -12 c-14 -7 -40 -18 -57 -25 -18 -6 -33 -17 -33 -25 0 -26 34 -33
108 -22 51 8 91 8 139 1 54 -8 71 -8 82 2 20 19 6 44 -34 61 -25 10 -35 21
-36 37 -12 356 -12 352 46 393 75 52 135 56 176 12 l29 -33 -2 -205 -3 -205
-45 -11 c-79 -19 -60 -69 20 -54 59 12 145 12 194 0 43 -9 76 1 76 24 0 12
-19 23 -72 40 -16 5 -18 24 -18 211 0 233 -6 256 -77 311 -35 27 -44 29 -123
29 -84 0 -85 -1 -141 -43 -71 -53 -84 -54 -74 -4 21 107 -1 131 -56 62z"/>
<path d="M5299 1120 c-24 -22 -53 -42 -64 -45 -11 -2 -40 -7 -65 -12 -39 -7
-45 -11 -45 -33 0 -21 5 -25 35 -28 68 -7 70 -12 70 -227 0 -214 0 -213 -68
-224 -30 -5 -38 -11 -40 -31 l-3 -25 180 -1 c179 0 201 4 182 34 -3 6 -29 16
-56 22 -27 6 -52 15 -55 20 -3 4 -2 133 1 286 5 260 2 304 -21 304 -4 0 -27
-18 -51 -40z"/>
<path d="M6927 1124 c-42 -51 -82 -84 -100 -84 -29 0 -57 -19 -57 -38 0 -11
16 -25 43 -37 l42 -20 3 -179 c1 -115 -1 -183 -8 -191 -6 -7 -26 -16 -44 -19
-41 -8 -73 -39 -54 -52 7 -5 96 -9 198 -9 156 0 185 2 187 15 5 28 -14 42 -63
47 -28 3 -55 12 -61 21 -16 19 -18 337 -3 376 12 32 42 34 77 6 30 -23 75 -26
96 -6 8 8 20 28 27 46 30 71 -66 149 -127 104 -15 -11 -31 -28 -37 -39 -16
-27 -44 -55 -56 -55 -13 0 -13 39 1 79 20 58 -25 82 -64 35z"/>
<path d="M6353 1113 c-67 -20 -164 -105 -194 -171 -17 -38 -21 -67 -22 -152 0
-95 2 -110 27 -157 47 -92 153 -160 250 -162 62 -1 146 30 208 76 69 52 72 57
58 83 -11 20 -60 29 -60 11 0 -5 -16 -18 -36 -30 -26 -16 -52 -21 -101 -21
-61 0 -69 3 -109 35 -53 43 -82 103 -86 175 l-3 55 200 0 200 0 -3 44 c-2 30
-14 60 -38 96 -55 84 -82 99 -224 130 -8 2 -38 -4 -67 -12z m101 -58 c55 -26
102 -113 72 -133 -6 -4 -62 -7 -123 -8 -113 -1 -113 -1 -113 23 0 35 44 97 82
116 41 20 43 20 82 2z"/>
<path d="M7451 1108 c-48 -13 -80 -37 -112 -82 -26 -34 -29 -48 -29 -112 l0
-73 50 -51 c29 -28 60 -50 72 -50 24 0 106 -25 166 -51 40 -18 42 -20 42 -64
0 -40 -4 -47 -37 -70 -21 -14 -50 -25 -66 -25 -62 0 -133 58 -176 143 -12 23
-23 32 -41 32 -28 0 -28 -2 -15 -112 4 -35 14 -68 20 -73 24 -20 149 -50 206
-50 218 0 312 246 137 356 -24 15 -58 31 -78 36 -19 5 -56 15 -82 21 -50 13
-108 60 -108 88 0 27 38 67 75 79 65 21 129 -16 174 -101 21 -39 66 -53 78
-23 10 27 -16 137 -37 155 -10 9 -53 22 -95 28 -87 13 -98 13 -144 -1z"/>
<path d="M8085 1107 c-50 -15 -126 -67 -151 -104 -55 -82 -58 -93 -57 -208 0
-95 3 -116 23 -153 30 -56 114 -130 176 -153 115 -44 266 -6 336 84 67 85 72
102 72 222 0 95 -3 116 -22 151 -27 50 -90 124 -104 124 -7 0 -19 6 -27 14
-39 33 -168 45 -246 23z m174 -75 c51 -43 71 -107 71 -234 0 -126 -21 -196
-72 -241 -50 -43 -134 -34 -179 19 -48 57 -67 279 -31 375 31 82 62 107 132
108 36 1 53 -5 79 -27z"/>
<path d="M1483 1085 c-10 -29 4 -48 47 -64 l45 -17 1 -174 c2 -263 1 -255 31
-291 32 -37 95 -68 140 -69 45 0 111 31 165 79 53 47 63 42 53 -25 -5 -36 -3
-45 11 -51 9 -3 25 -1 35 6 29 18 102 40 154 47 42 6 46 9 43 33 -3 23 -8 26
-40 26 -20 0 -40 3 -44 8 -4 4 -8 118 -8 253 l-1 246 -117 2 c-103 3 -119 1
-134 -15 -14 -15 -14 -21 -4 -34 7 -8 23 -15 36 -15 12 0 34 -4 48 -10 l26
-10 0 -179 0 -180 -37 -30 c-79 -65 -134 -76 -180 -37 l-28 24 -1 236 c0 130
-3 239 -7 242 -4 4 -57 8 -118 10 -85 1 -112 -1 -116 -11z"/>
<path d="M2241 1081 c-14 -26 -5 -49 28 -66 28 -15 53 -36 91 -81 13 -16 53
-60 88 -97 l63 -68 -103 -104 c-56 -58 -107 -105 -113 -105 -17 0 -69 -46 -62
-56 8 -14 254 -11 268 3 8 8 0 17 -30 34 -24 13 -41 30 -41 40 0 22 96 139
114 139 7 0 25 -17 40 -38 14 -21 40 -51 56 -67 17 -16 30 -33 30 -37 0 -5
-16 -18 -35 -29 -19 -12 -35 -28 -35 -38 0 -14 17 -16 152 -15 103 0 153 4
156 12 5 16 -15 50 -35 57 -10 3 -34 26 -53 52 -19 26 -42 54 -50 62 -9 9 -33
39 -55 66 -22 28 -48 59 -57 69 -10 11 -18 23 -18 27 0 4 35 44 78 89 59 62
88 85 127 98 42 15 50 22 50 42 0 23 -3 25 -45 23 -51 -3 -121 -3 -165 0 -24
2 -31 -2 -33 -21 -3 -18 3 -25 27 -33 17 -6 31 -13 31 -15 0 -3 -87 -133 -95
-142 -12 -13 -125 109 -125 133 0 8 11 17 25 21 20 5 25 12 25 36 l0 31 -62
-9 c-81 -11 -155 -11 -195 -1 -26 7 -33 5 -42 -12z"/>
<path d="M5457 1093 c-4 -3 -7 -16 -7 -28 0 -16 10 -26 40 -38 22 -8 43 -24
46 -34 3 -10 12 -33 20 -50 8 -18 22 -50 30 -70 9 -21 23 -51 30 -66 8 -16 14
-35 14 -42 0 -7 6 -26 14 -42 17 -36 39 -86 61 -143 36 -92 48 -110 75 -110
25 0 60 44 60 77 0 8 6 27 13 41 18 34 41 86 62 137 9 22 23 55 31 73 8 18 14
37 14 43 0 6 6 25 14 42 7 18 22 54 32 82 17 44 25 51 64 65 37 13 46 21 48
43 l3 27 -130 0 c-123 0 -131 -1 -142 -22 -15 -28 10 -48 57 -46 19 1 37 -2
40 -5 6 -6 -19 -101 -36 -137 -4 -8 -15 -42 -25 -75 -31 -108 -46 -145 -60
-145 -8 0 -17 15 -21 35 -3 19 -10 38 -15 41 -5 3 -9 14 -9 26 0 11 -6 32 -13
46 -8 15 -22 45 -31 67 -10 22 -24 53 -32 68 -8 16 -14 39 -14 52 0 19 7 24
40 29 45 7 61 29 37 53 -13 13 -25 14 -74 6 -33 -6 -84 -7 -118 -3 -79 11
-110 11 -118 3z"/>
</g>
</svg>
